<?xml version="1.0" encoding="UTF-8" ?>
<svg id="Layer_1" xmlns="http://www.w3.org/2000/svg" version="1.1" viewBox="0 0 285 97">
    <!-- Generator: Adobe Illustrator 29.5.1, SVG Export Plug-In . SVG Version: 2.1.0 Build 141) -->
    <defs>
        <style>            
            .st0 {
            stroke: #c4c4c4;
            filter: drop-shadow(0 0 5px rgba(255, 255, 255, 1));
            }
            
            .st1 {
            opacity: .20;
            }
        </style>
    </defs>
    <g class="st1">
        <g>
            <g>
                <polygon class="st0" points="31.23 66.88 38.39 66.89 38.36 57.47 31.23 66.88" />
                <path class="st0" d="M37.17,16.34C18.02,16.34,2.5,31.86,2.5,51.01s15.52,34.67,34.67,34.67,34.67-15.52,34.67-34.67-15.52-34.67-34.67-34.67ZM37.17,23.43c5.11,0,9.28,4.02,9.28,8.95,0,1.21-1.02,2.2-2.27,2.2s-2.27-.99-2.27-2.2c0-2.51-2.12-4.56-4.73-4.56s-4.73,2.04-4.73,4.56c0,1.21-1.02,2.2-2.27,2.2s-2.27-.99-2.27-2.2c0-4.94,4.16-8.95,9.28-8.95ZM58.3,64.26c0,3.47-2.95,6.3-6.57,6.3l-9.69-.02.02,5.53c0,1.01-.81,1.82-1.81,1.83h0c-1,0-1.82-.81-1.82-1.81l-.02-5.55-10.7-.02c-.73,0-1.37-.41-1.69-1.05-.32-.64-.25-1.4.19-1.98l12.39-16.34c.49-.64,1.33-.91,2.1-.65.77.26,1.29.97,1.29,1.78l.05,14.62,9.7.02c1.62,0,2.93-1.19,2.93-2.66v-19.6c0-1.47-1.32-2.66-2.94-2.66h-29.11c-1.62,0-2.94,1.19-2.94,2.66v23.35c0,1-.81,1.82-1.82,1.82s-1.82-.81-1.82-1.82v-23.35c0-3.47,2.95-6.3,6.57-6.3h29.11c3.62,0,6.57,2.83,6.57,6.3v19.6Z" />
            </g>
            <g>
                <path class="st0" d="M121.39,70.54c7.69,0,13.95-5.03,13.95-11.2,0-5.61-5.35-9.88-13.97-11.15-4.36-.64-7.18-2.92-7.18-5.8,0-3.2,3.23-5.8,7.2-5.8s7.2,2.6,7.2,5.8c0,1.47,1.51,2.67,3.37,2.67s3.37-1.17,3.37-2.67c0-6.15-6.26-11.15-13.95-11.15s-13.95,5-13.95,11.15c0,6.52,7.02,10.3,13.97,11.15,3.58.44,7.18,2.4,7.18,5.8s-3.23,5.86-7.2,5.86-7.2-2.63-7.2-5.86c0-1.47-1.51-2.67-3.37-2.67s-3.37,1.2-3.37,2.67c0,6.18,6.26,11.2,13.95,11.2Z" />
                <path class="st0" d="M137.69,50.72c0-10.62,8.64-19.55,19.55-19.55s19.55,8.93,19.55,19.55-8.64,19.89-19.55,19.89-19.55-8.98-19.55-19.89ZM143.17,50.72c0,8.02,6.33,14.41,14.07,14.41s14.13-6.38,14.13-14.41-6.38-14.07-14.13-14.07-14.07,6.33-14.07,14.07Z" />
                <path class="st0" d="M179.67,56.29v-22.15c0-1.58,1.24-2.83,2.77-2.83s2.83,1.24,2.83,2.83v22.15c0,4.75,3.84,8.59,8.59,8.59s8.59-3.84,8.59-8.59v-22.15c0-1.58,1.24-2.83,2.77-2.83s2.83,1.24,2.83,2.83v22.15c0,7.85-6.38,14.18-14.18,14.18s-14.18-6.33-14.18-14.18Z" />
                <path class="st0" d="M250.63,50.92c0,2.6-.51,5.2-1.53,7.63-1.02,2.32-2.43,4.41-4.24,6.22-1.81,1.81-3.9,3.22-6.22,4.24-2.43,1.02-5.03,1.53-7.68,1.53s-5.2-.51-7.63-1.53c-2.32-1.02-4.41-2.43-6.22-4.24-1.81-1.81-3.22-3.9-4.24-6.22-1.02-2.43-1.53-5.03-1.53-7.63s.51-5.25,1.53-7.68c1.02-2.32,2.43-4.41,4.24-6.22,1.81-1.81,3.9-3.22,6.22-4.24,2.43-1.02,4.97-1.53,7.57-1.53,6.38-.17,12.09,2.49,16.33,8.14.96,1.3.34,3.11-1.02,3.9-1.41.79-2.94.17-3.96-1.02-3.22-3.79-6.89-5.37-11.36-5.37-7.68.06-13.9,6.27-13.9,14.01s6.27,13.96,13.96,13.96c6.78,0,12.43-4.8,13.73-11.13h-12.26c-1.58,0-2.83-1.3-2.83-2.83s1.24-2.83,2.83-2.83h15.37c1.53,0,2.83,1.24,2.83,2.83Z" />
                <path class="st0" d="M282.83,34v33.79c0,1.58-1.3,2.83-2.83,2.83s-2.83-1.24-2.83-2.83v-13.96h-17.46v13.96c0,1.58-1.3,2.83-2.83,2.83s-2.83-1.24-2.83-2.83v-33.79c0-1.53,1.24-2.83,2.83-2.83s2.83,1.3,2.83,2.83v14.18h17.46v-14.18c0-1.53,1.24-2.83,2.83-2.83s2.83,1.3,2.83,2.83Z" />
                <path class="st0" d="M98.4,70.85c1.48,0,2.69-1.21,2.69-2.69v-5.95h2.14c1.48,0,2.69-1.21,2.69-2.69s-1.18-2.69-2.69-2.69h-2.14v-22.99c0-1.11-.67-2.1-1.66-2.47-.35-.15-.71-.22-1.06-.22-.7,0-1.38.28-1.9.81l-.11.11-18.56,25.71c-.61.77-.75,1.8-.38,2.75.37,1,1.36,1.66,2.47,1.66h15.83v5.95c0,1.48,1.21,2.69,2.69,2.69ZM85.51,56.84l10.2-15.37v15.37h-10.2Z" />
            </g>
        </g>
    </g>
</svg>